<!-- icon666.com - MILLIONS vector ICONS FREE --><svg id="Layer_1" enable-background="new 0 0 124 124" viewBox="0 0 124 124" xmlns="http://www.w3.org/2000/svg"><g><g><g><g id="XMLID_7_"><path d="m66.273 58.954c-.123-.901-1.825-14.681 9.016-23.657 8.39-6.947 20.702-8.025 30.711-2.564-2.051 2.014-5.051 5.092-8.406 9.072-8.14 9.655-9.465 14.055-14.673 16.734-2.884 1.483-8.479 2.766-16.648.415z" fill="#64c35b"></path></g><g><path d="m79.43 39.431c6.806-5.635 16.192-7.407 24.836-4.961.632-.645 1.214-1.225 1.734-1.736-10.009-5.461-22.321-4.383-30.711 2.564-10.841 8.976-9.138 22.756-9.016 23.657 1.403.404 2.725.694 3.976.9.044-4.802 1.283-13.885 9.181-20.424z" fill="#44ac3d"></path></g></g><g><g id="XMLID_17_"><path d="m69.526 79.825c-.038-.908-.863-14.84-13.119-21.822-9.485-5.404-21.8-4.356-30.696 2.737 2.375 1.632 5.87 4.149 9.875 7.494 9.715 8.114 11.794 12.22 17.395 13.966 3.457 1.077 8.762 1.414 16.545-2.375z" fill="#64c35b"></path></g><g><path d="m53.301 63.17c8.676 4.943 11.621 13.363 12.617 18.186 1.141-.413 2.338-.912 3.608-1.53-.038-.908-.863-14.84-13.119-21.822-9.485-5.404-21.8-4.356-30.696 2.737.714.491 1.539 1.071 2.439 1.72 8.044-3.803 17.513-3.642 25.151.709z" fill="#44ac3d"></path></g></g><g><g id="XMLID_9_"><path d="m57.791 29.773c.123-.901 1.762-14.762-9.079-23.738-8.391-6.947-20.703-8.025-30.712-2.564 2.051 2.014 5.051 5.092 8.406 9.072 8.14 9.655 9.465 14.055 14.673 16.734 3.215 1.653 8.38 2.893 16.712.496z" fill="#64c35b"></path></g><g><path d="m48.711 6.035c-8.39-6.947-20.702-8.025-30.711-2.564.786.771 1.712 1.701 2.742 2.776 8.652-2.457 18.05-.686 24.863 4.955 7.293 6.038 8.936 14.282 9.194 19.309.949-.193 1.945-.436 2.991-.737.123-.902 1.763-14.763-9.079-23.739z" fill="#44ac3d"></path></g></g><g fill="#956c4c"><path d="m64.411 39.581c5.256 14.064-1.782-4.77 0 0z"></path><path d="m102.329 31.064c-8.937 1.558-16.924 7.288-23.069 12.326-4.873 3.996-8.233 7.212-10.844 10-1.002-4.734-2.336-9.342-4.005-13.808-1.782-4.77-3.961-9.417-6.489-13.91-2.949-3.407-6.749-6.269-13.182-11.544-6.144-5.038-14.132-10.769-23.069-12.327-1.249.466-2.477 1.019-3.671 1.67.662.65 1.431 1.422 2.27 2.288 6.445.916 13.298 4.558 21.841 11.562 6.76 5.543 10.522 9.555 13.452 13.018.07-.016.164-.037.164-.037 1.826 3.491 3.438 7.069 4.803 10.723 3.916 10.482 5.913 21.794 5.983 33.737-3.105-2.342-7.023-4.974-12.59-8.111-6.938-3.908-15.815-8.183-24.892-8.185-1.148.673-2.261 1.428-3.322 2.274.766.527 1.659 1.155 2.638 1.864 6.509-.199 13.896 2.213 23.539 7.646 6.927 3.902 11.196 6.984 14.539 9.695-.07 1.735-.172 3.481-.322 5.24-.448 5.293-.673 10.625-1.446 15.885-.582 3.961-1.508 8.119-3.953 11.387-.595.795-.564 1.95.119 2.672.871.921 2.409.853 3.175-.166 2.742-3.646 3.951-8.141 4.652-12.581.879-5.573 1.103-11.234 1.581-16.849.792-9.346.496-18.377-.871-27.017 2.78-3.195 6.413-6.92 12.527-11.933 8.543-7.004 15.396-10.646 21.841-11.562.839-.866 1.608-1.638 2.27-2.288-1.192-.651-2.42-1.203-3.669-1.669z"></path></g></g><g><g id="XMLID_228_"><ellipse cx="46.481" cy="113.724" fill="#ffd291" rx="17.931" ry="10.263"></ellipse></g><g><path d="m46.481 103.461c-1.385 0-2.769.1-4.141.286 4.658.631 10.535 2.472 12.965 6.896 2.213 4.027-.522 7.943-3.988 10.07-2.704 1.659-5.852 2.565-8.977 2.989 6.58.892 15.394-.02 20.115-5.31 1.617-1.812 4.67-7.515-3.873-12.24-3.643-2.016-7.969-2.691-12.101-2.691z" fill="#fcc054"></path></g></g></g></svg>