<!-- icon666.com - MILLIONS vector ICONS FREE --><svg version="1.1" id="Capa_1" xmlns="http://www.w3.org/2000/svg" xmlns:xlink="http://www.w3.org/1999/xlink" x="0px" y="0px" viewBox="0 0 512 512" style="enable-background:new 0 0 512 512;" xml:space="preserve"><path style="fill:#898890;" d="M240.918,398.331l14.924,32.298h72.754l0.1,0.081l1.698-0.436 c8.258-2.121,15.298-7.407,19.626-14.642c0.56-0.904,1.066-1.83,1.518-2.788l39.673-83.598l-116.714-55.391l-39.673,83.587 c-4.113,8.667-4.166,18.7-0.14,27.399L240.918,398.331z"></path><polygon style="fill:#57565C;" points="366.891,317.705 354.79,343.198 304.599,361.091 286.716,310.89 298.817,285.396 "></polygon><rect x="412.109" y="27.661" transform="matrix(0.9034 0.4288 -0.4288 0.9034 62.7564 -190.9465)" style="fill:#FF5023;" width="86.13" height="32.3"></rect><rect x="367.478" y="97.664" transform="matrix(0.9034 0.4288 -0.4288 0.9034 120.4856 -145.7049)" style="fill:#E0E0E2;" width="32.3" height="193.79"></rect><polygon style="fill:#FF5023;" points="343.074,330.235 314.39,340.455 304.17,311.77 322.636,272.865 361.54,291.331 "></polygon><path style="fill:#57565C;" d="M328.596,430.629l0.1,0.081l1.698-0.436c8.258-2.121,15.298-7.407,19.626-14.642l-21.424-17.301 h-87.678l14.924,32.298H328.596z"></path><polygon style="fill:#CDB8AB;" points="468.554,477.005 436.256,465.411 393.192,465.411 350.128,448.02 328.596,430.629 231.702,430.629 156.341,459.614 124.043,477.005 102.511,465.411 37.915,477.005 5.617,505.99 500.851,505.99 500.851,494.397 "></polygon><rect x="403.768" y="105.852" transform="matrix(0.9034 0.4288 -0.4288 0.9034 91.2054 -168.6525)" style="fill:#898890;" width="32.3" height="24.496"></rect><polygon style="fill:#AF9A91;" points="457.788,488.599 436.256,484.459 393.192,484.459 328.596,469.552 317.83,452.161 242.468,452.161 188.639,462.927 124.043,495.224 102.511,484.459 48.681,495.224 37.915,505.99 479.319,505.99 "></polygon><path style="fill:#91DC5A;" d="M82.445,258.373c0,0,0.51,30.961,15.225,45.676s29.655,16.022,38.063,7.613 c8.408-8.409,7.102-23.348-7.613-38.063C113.406,258.884,82.445,258.373,82.445,258.373z"></path><path style="fill:#5EAC24;" d="M135.734,296.246c-8.408,8.408-23.348,7.102-38.063-7.613c-7.833-7.833-11.641-20.27-13.49-30.189 c-1.101-0.059-1.737-0.071-1.737-0.071s0.51,30.961,15.225,45.676s29.655,16.022,38.063,7.613 c5.094-5.094,6.615-12.589,3.755-20.976C138.617,292.75,137.359,294.621,135.734,296.246z"></path><path style="fill:#91DC5A;" d="M242.468,258.373c0,0-0.51,30.961-15.225,45.676c-14.715,14.715-29.655,16.022-38.063,7.613 s-7.102-23.348,7.613-38.063S242.468,258.373,242.468,258.373z"></path><path style="fill:#5EAC24;" d="M227.243,288.633c-14.715,14.715-29.655,16.022-38.063,7.613c-1.625-1.625-2.882-3.496-3.755-5.56 c-2.859,8.387-1.339,15.881,3.755,20.976c8.408,8.408,23.348,7.102,38.063-7.613c14.715-14.715,15.225-45.676,15.225-45.676 s-0.635,0.012-1.737,0.071C238.884,268.364,235.076,280.8,227.243,288.633z"></path><path style="fill:#91DC5A;" d="M93.211,183.012c0,0,0.394,23.939,11.773,35.317c11.379,11.377,22.929,12.388,29.431,5.886 c6.502-6.502,5.492-18.053-5.886-29.431C117.151,183.406,93.211,183.012,93.211,183.012z"></path><path style="fill:#5EAC24;" d="M134.415,211.296c-6.502,6.502-18.053,5.492-29.431-5.886c-5.794-5.794-8.737-14.843-10.233-22.333 c-0.98-0.056-1.54-0.066-1.54-0.066s0.394,23.939,11.773,35.317c11.377,11.377,22.929,12.388,29.431,5.886 c4.056-4.056,5.187-10.077,2.702-16.795C136.454,208.847,135.557,210.153,134.415,211.296z"></path><path style="fill:#91DC5A;" d="M231.702,183.012c0,0-0.394,23.939-11.773,35.317c-11.379,11.377-22.929,12.388-29.431,5.886 c-6.502-6.503-5.492-18.053,5.886-29.431C207.762,183.406,231.702,183.012,231.702,183.012z"></path><path style="fill:#5EAC24;" d="M219.93,205.41c-11.377,11.377-22.929,12.388-29.431,5.886c-1.143-1.143-2.039-2.449-2.702-3.876 c-2.484,6.718-1.353,12.739,2.702,16.795c6.502,6.502,18.052,5.492,29.431-5.886c11.377-11.377,11.773-35.317,11.773-35.317 s-0.56,0.01-1.54,0.066C228.667,190.566,225.725,199.615,219.93,205.41z"></path><path style="fill:#91DC5A;" d="M106.474,118.416c0,0,0.394,23.939,11.773,35.317s22.929,12.388,29.431,5.886 c6.502-6.503,5.492-18.053-5.886-29.431S106.474,118.416,106.474,118.416z"></path><path style="fill:#5EAC24;" d="M147.677,146.7c-6.502,6.502-18.052,5.492-29.431-5.886c-5.794-5.794-8.737-14.843-10.233-22.333 c-0.98-0.056-1.54-0.066-1.54-0.066s0.394,23.939,11.773,35.317c11.377,11.377,22.929,12.388,29.431,5.886 c4.056-4.056,5.187-10.077,2.702-16.795C149.716,144.251,148.82,145.557,147.677,146.7z"></path><path style="fill:#91DC5A;" d="M218.44,118.416c0,0-0.394,23.939-11.773,35.317c-11.379,11.377-22.929,12.388-29.431,5.886 c-6.502-6.503-5.492-18.053,5.886-29.431S218.44,118.416,218.44,118.416z"></path><path style="fill:#5EAC24;" d="M206.667,140.814c-11.377,11.377-22.929,12.388-29.431,5.886c-1.143-1.143-2.039-2.449-2.702-3.876 c-2.484,6.718-1.353,12.739,2.702,16.795c6.502,6.502,18.052,5.492,29.431-5.886c11.377-11.377,11.773-35.317,11.773-35.317 s-0.56,0.01-1.54,0.066C215.405,125.97,212.463,135.019,206.667,140.814z"></path><path style="fill:#FFFFFF;" d="M247.405,382.201c-1.489-3.222-2.245-6.656-2.245-10.205c0.001-2.663,0.434-5.29,1.288-7.807 l15.294,5.183c-0.287,0.847-0.432,1.73-0.433,2.627c0,1.191,0.254,2.344,0.754,3.426L247.405,382.201z M268.212,355.609 l-14.589-6.925l13.849-29.178l14.589,6.925L268.212,355.609z"></path><path d="M227.528,353.985c-5.154,10.856-5.217,23.34-0.175,34.249l11.206,24.249l14.659-6.775l-11.206-24.249 c-3.025-6.546-2.986-14.035,0.106-20.549l36.215-76.299l24.316,11.541l-7.205,15.18l14.052,39.441l39.441-14.052l7.205-15.18 l24.315,11.541l-36.215,76.299c-0.899,1.896-2.042,3.667-3.396,5.266l12.324,10.435c2.257-2.666,4.161-5.618,5.661-8.776 l43.138-90.888l-38.904-18.465l9.233-19.452l-4.863-2.308l76.575-161.335c2.408,0.514,4.836,0.771,7.248,0.771 c13.1,0,25.684-7.384,31.664-19.985l15.003-31.609l0,0l13.849-29.178L419.376,0l-20.774,43.767l0,0l-8.079,17.021 c-7.081,14.918-2.635,32.38,9.72,42.291l-76.577,161.339l-4.863-2.308l-9.233,19.452l-38.904-18.465L227.528,353.985z M468.331,97.718c-4.454,9.386-15.712,13.397-25.099,8.942l0,0l-29.184-13.853c-9.38-4.457-13.39-15.713-8.936-25.095l8.079-17.021 l63.219,30.006L468.331,97.718z M490.259,51.519l-6.925,14.59l-63.219-30.006l6.925-14.589L490.259,51.519z M414.424,110.862 l14.589,6.925l-76.169,160.48l-14.589-6.925L414.424,110.862z M319.286,330.138l-6.387-17.927l13.569-28.588l12.158,5.771 l12.158,5.771l-13.568,28.588L319.286,330.138z"></path><path d="M437.661,457.337h-42.9l-40.494-16.353l-22.816-18.429H230.204l-59.672,22.951V337.548l19.037-15.657 c3.683,1.965,7.943,3.087,12.599,3.087c9.197,0,19.935-4.371,30.784-15.22c16.831-16.832,17.566-49.855,17.589-51.252l0.137-8.344 l-8.344,0.137c-1.397,0.023-34.421,0.758-51.252,17.589c-15.803,15.803-17.851,31.359-12.682,42.279l-7.87,6.472v-65.22 l20.726-17.045c2.814,1.262,5.894,1.931,9.149,1.931c1.412,0,2.855-0.122,4.32-0.368c7.088-1.193,14.321-5.309,20.914-11.902 c13.303-13.303,14.09-38.108,14.136-40.893l0.137-8.344l-8.344,0.137c-2.784,0.045-27.589,0.832-40.893,14.136 c-6.593,6.593-10.709,13.825-11.902,20.914c-0.765,4.546-0.321,8.878,1.234,12.731l-9.477,7.795v-45.165l9.366-14.824 c2.283,0.771,4.71,1.187,7.247,1.187c1.412,0,2.855-0.122,4.319-0.368c7.089-1.193,14.321-5.309,20.914-11.902 c13.303-13.303,14.09-38.108,14.136-40.893l0.137-8.344l-8.344,0.137c-2.784,0.045-27.589,0.832-40.893,14.136 c-6.593,6.593-10.708,13.825-11.901,20.914c-0.883,5.243-0.166,10.204,2.02,14.469l-5.075,8.034l-5.111-8.088 c4.49-9.028,3.199-22.283-9.845-35.329c-13.305-13.303-38.109-14.09-40.893-14.136l-8.344-0.137l0.138,8.344 c0.045,2.784,0.832,27.59,14.137,40.893c6.593,6.593,13.825,10.709,20.914,11.902c1.465,0.247,2.907,0.368,4.319,0.368 c2.535,0,4.962-0.417,7.247-1.187l9.365,14.824v45.164l-9.538-7.843c3.516-8.944,1.627-21.36-10.608-33.595 c-13.304-13.303-38.108-14.09-40.893-14.136l-8.345-0.137l0.137,8.344c0.045,2.784,0.832,27.589,14.136,40.893 c6.593,6.593,13.825,10.709,20.914,11.902c1.465,0.247,2.907,0.368,4.319,0.368c3.255,0,6.335-0.67,9.149-1.931l20.726,17.045 v65.219l-7.87-6.473c5.17-10.921,3.121-26.476-12.681-42.279c-16.832-16.832-49.855-17.566-51.252-17.589l-8.344-0.137l0.137,8.344 c0.023,1.397,0.758,34.421,17.589,51.252c8.176,8.177,17.086,13.27,25.766,14.731c1.755,0.295,3.482,0.441,5.172,0.441 c4.487,0,8.705-1.034,12.453-3.033l19.031,15.65v114.168l-1.418,0.546l-28.921,15.573l-20.185-10.869l-69.628,12.497l-34.004,30.52 L11.011,512l30.59-27.453l59.564-10.692l22.879,12.319l35.675-19.21l10.502-4.039h0.311v-0.119l62.671-24.104h92.541l20.248,16.354 l45.634,18.429h43.228l30.405,10.915l27.52,14.818v6.772h16.149v-16.417l-37.076-19.964L437.661,457.337z M202.502,279.309 c7.375-7.375,21.199-10.754,31.147-12.101c-1.334,9.927-4.705,23.723-12.115,31.132c-10.245,10.246-20.954,13.305-26.645,7.613 C189.197,300.262,192.257,289.554,202.502,279.309z M202.095,200.493c4.806-4.806,13.515-7.293,20.602-8.476 c-1.182,7.087-3.67,15.796-8.476,20.602c-7.037,7.034-14.444,9.455-18.013,5.887C192.639,214.936,195.059,207.529,202.095,200.493z M128.704,218.506c-1.435,1.434-3.344,1.929-5.837,1.508c-3.706-0.623-8.029-3.25-12.174-7.395 c-4.806-4.806-7.293-13.515-8.476-20.602c7.087,1.182,15.796,3.67,20.602,8.476C129.854,207.529,132.274,214.936,128.704,218.506z M120.407,308.565c-5.273-0.887-11.32-4.518-17.026-10.225c-7.375-7.375-10.754-21.199-12.101-31.147 c9.927,1.334,23.723,4.705,31.132,12.115c10.245,10.245,13.304,20.953,7.613,26.645 C127.621,308.356,124.386,309.236,120.407,308.565z M181.437,148.073c0.623-3.706,3.25-8.029,7.395-12.175 c4.806-4.806,13.514-7.293,20.602-8.476c-1.182,7.087-3.67,15.796-8.476,20.602c-4.146,4.146-8.469,6.772-12.174,7.395 c-2.492,0.42-4.402-0.074-5.837-1.509C181.511,152.475,181.018,150.566,181.437,148.073z M136.13,155.418 c-3.706-0.623-8.029-3.25-12.174-7.395c-4.802-4.802-7.29-13.503-8.474-20.587c7.057,1.191,15.822,3.684,20.6,8.461 c7.036,7.036,9.456,14.443,5.886,18.013C140.533,155.344,138.623,155.838,136.13,155.418z"></path><rect x="94.439" y="43.05" width="16.15" height="16.15"></rect><rect x="94.439" y="10.756" width="16.15" height="16.15"></rect><rect x="202.099" y="43.05" width="16.15" height="16.15"></rect><rect x="202.099" y="10.756" width="16.15" height="16.15"></rect><rect x="148.269" y="75.35" width="16.15" height="16.15"></rect><rect x="148.269" y="43.05" width="16.15" height="16.15"></rect><rect x="148.269" y="10.756" width="16.15" height="16.15"></rect></svg>