<!-- icon666.com - MILLIONS vector ICONS FREE --><svg viewBox="0 0 512 512" xmlns="http://www.w3.org/2000/svg"><g id="BULINE"><circle cx="256" cy="256" fill="#de6b53" r="256"></circle></g><g id="Icons"><path d="m498.81 337.31c-33.98 101.52-129.81 174.69-242.81 174.69-103.1 0-192-61-232.53-148.8 7.85-24.36 37.66-42.61 73.53-43.2 4.65-7.88 13.1-14.83 23.88-18.83q1.37-.51 2.79-1a56 56 0 0 1 7.3-1.75 50.82 50.82 0 0 1 9.34-.72 45.2 45.2 0 0 1 9 1 34.93 34.93 0 0 1 11.1 4.43 99.8 99.8 0 0 1 40.36-8.13c28.7 0 53.73 11.33 67.08 28.14a69.25 69.25 0 0 1 9.76-1.57.32.32 0 0 1 .14 0 78.27 78.27 0 0 1 9.49-.3 86.74 86.74 0 0 1 19.68 2.9l1.65.46a85 85 0 0 1 20.88 9.09 51.46 51.46 0 0 1 20-11.44 54.61 54.61 0 0 1 8.79-2 48.68 48.68 0 0 1 13.85 0 39.11 39.11 0 0 1 9.59 2.63l.32.14a77.53 77.53 0 0 1 11.54-6.52c2.16-1 4.4-1.92 6.7-2.77l.14-.05a98.05 98.05 0 0 1 29.54-5.71c30.22-1.2 56.72 10.93 68.89 29.31z" fill="#5e3723"></path><g fill="#4e2d1e"><rect height="22.69" rx="11.35" width="47.88" x="88.97" y="422.28"></rect><rect height="22.69" rx="11.35" width="47.88" x="204.82" y="436.14"></rect><rect height="22.69" rx="11.35" width="47.88" x="316.12" y="391.62"></rect><rect height="22.69" rx="11.35" width="47.88" x="411.87" y="354.62"></rect></g><ellipse cx="217" cy="408.84" fill="#6e3e29" rx="23.94" ry="9.66"></ellipse><ellipse cx="387.93" cy="433.62" fill="#6e3e29" rx="23.94" ry="9.66"></ellipse><path d="m187.62 215.82c-1.77-1.76-4.15-2.22-5.31-1l-33 33.35v-90.89c0-1.65-2-3-4.51-3s-4.51 1.34-4.51 3v150.41l-32.6-32.26c-1.17-1.16-3.54-.67-5.3 1.11s-2.22 4.14-1 5.31l38.94 38.54v50.12h9v-109.51l39.42-39.83c1.13-1.23.64-3.6-1.13-5.35z" fill="#6b882d"></path><path d="m167.42 192.06a31.88 31.88 0 1 0 44.52 45.64c9.81-9.57 19.16-45.68 22.82-61.21a4.73 4.73 0 0 0 -5.59-5.73c-15.62 3.24-51.94 11.73-61.75 21.3z" fill="#89af3b"></path><path d="m233.55 172.09-66.69 65.06a31.88 31.88 0 0 0 45.08.55c9.81-9.57 19.16-45.68 22.82-61.21a4.69 4.69 0 0 0 -1.21-4.4z" fill="#6b882d"></path><ellipse cx="190.36" cy="194.05" fill="#a5cc4b" rx="13.83" ry="6.01" transform="matrix(.716 -.698 .698 .716 -81.4 188.08)"></ellipse><path d="m78.63 296.73a31.88 31.88 0 0 0 45.64-44.52c-9.57-9.81-45.68-19.15-61.21-22.82a4.73 4.73 0 0 0 -5.73 5.61c3.28 15.6 11.73 51.93 21.3 61.73z" fill="#89af3b"></path><path d="m58.65 230.6 65.06 66.69a31.89 31.89 0 0 0 .56-45.08c-9.57-9.81-45.68-19.15-61.21-22.82a4.72 4.72 0 0 0 -4.41 1.21z" fill="#6b882d"></path><ellipse cx="80.62" cy="273.79" fill="#a5cc4b" rx="6.01" ry="13.83" transform="matrix(.716 -.698 .698 .716 -168.28 134.11)"></ellipse><path d="m176.67 134.25a31.88 31.88 0 1 1 -63.76 0c0-13.7 19.31-45.6 27.88-59.07a4.72 4.72 0 0 1 8 0c8.56 13.47 27.88 45.37 27.88 59.07z" fill="#89af3b"></path><path d="m144.78 73v93.17a31.88 31.88 0 0 1 -31.87-31.89c0-13.7 19.31-45.6 27.88-59.07a4.69 4.69 0 0 1 3.99-2.21z" fill="#6b882d"></path><ellipse cx="159.22" cy="119.22" fill="#a5cc4b" rx="6.01" ry="13.83"></ellipse><path d="m201.12 358.5c-.31 0-.62 0-.93 0a23.93 23.93 0 0 0 -39.67-12.12 14.19 14.19 0 0 0 -17.12 1.45 23.95 23.95 0 0 0 -41.72 15.88 14.06 14.06 0 0 0 -6.4-1.54 14.29 14.29 0 1 0 13.55 18.83 23.94 23.94 0 0 0 30.43 2.6 14.26 14.26 0 0 0 24.56.4 23.93 23.93 0 0 0 27.4-.91 14.28 14.28 0 1 0 9.9-24.56z" fill="#4e2d1e"></path><path d="m215.41 372.22a14.3 14.3 0 0 1 -1.17 5.67 14.3 14.3 0 0 0 -13.12-8.61c-.31 0-.62 0-.93.05a23.93 23.93 0 0 0 -39.67-12.13 14.22 14.22 0 0 0 -17.12 1.46 23.93 23.93 0 0 0 -41.71 15.87 14.27 14.27 0 0 0 -19.53 7.08 14.3 14.3 0 0 1 13.12-20 14.13 14.13 0 0 1 6.41 1.54 23.94 23.94 0 0 1 41.71-15.88 14.19 14.19 0 0 1 17.12-1.45 23.93 23.93 0 0 1 39.67 12.18c.31 0 .62-.05.93-.05a14.28 14.28 0 0 1 14.29 14.27z" fill="#41261b"></path><circle cx="179.6" cy="354.47" fill="#6e3e29" r="6.05"></circle><circle cx="125.62" cy="351.97" fill="#6e3e29" r="6.05"></circle><circle cx="152.1" cy="373.4" fill="#3d241a" r="6.05"></circle><path d="m396.62 7a27.73 27.73 0 0 1 27.73 27.73v132.88a0 0 0 0 1 0 0h-55.46a0 0 0 0 1 0 0v-132.86a27.73 27.73 0 0 1 27.73-27.75z" fill="#5e3723" transform="matrix(.964 .266 -.266 .964 37.43 -102.19)"></path><path d="m405 161.32-3 10.77-53.48-14.73 3-10.77 32.17-116.77c4.05-14.7 19.08-23.86 33.84-20a27.74 27.74 0 0 1 20.41 22.18 27.88 27.88 0 0 0 -6.79-3c-14.87-4.33-30.55 4.91-34.66 19.83l-26.61 96.59a6 6 0 0 0 4.2 7.38z" fill="#4e2d1e"></path><ellipse cx="399.69" cy="120.36" fill="#945e43" rx="21.94" ry="9.73" transform="matrix(.27 -.96 .96 .27 177.52 473.74)"></ellipse><ellipse cx="410.58" cy="80.85" fill="#945e43" rx="14.49" ry="6.42" transform="matrix(.266 -.964 .964 .266 223.6 455.21)"></ellipse><rect fill="#4e2d1e" height="14.08" rx="5.8" transform="matrix(.964 .266 -.266 .964 58.86 -92.8)" width="76.16" x="334.55" y="164.25"></rect><path d="m409.78 179.8a5.79 5.79 0 0 0 -4.15-6.72l-62.23-17.15a5.81 5.81 0 0 0 -7.14 4l-.66 2.39a5.81 5.81 0 0 0 4.06 7.14l3.6 1 .09-.41.66-2.4a5.81 5.81 0 0 1 7.14-4z" fill="#43281c"></path><path d="m336.08 376.9a25.75 25.75 0 0 1 -37.16-10.24l-16.75-34.12a79.63 79.63 0 0 1 -5.29-56.21l14.12-51.23a17.21 17.21 0 0 1 21.15-12l91.22 25.13a17.2 17.2 0 0 1 12 21.14l-14.11 51.23a79.61 79.61 0 0 1 -33.32 45.58z" fill="#6e695c"></path><path d="m415.73 256.58a17.21 17.21 0 0 0 -12.53-18.42l-91.2-25.16a17.21 17.21 0 0 0 -21.16 12l-14.11 51.23a79.63 79.63 0 0 0 5.27 56.26l16.75 34.12a25.54 25.54 0 0 0 9.1 10.26l-12.65-25.77a79.66 79.66 0 0 1 -5.28-56.22l14.08-51.23a17.21 17.21 0 0 1 21.15-12z" fill="#5d5950"></path><path d="m401.15 310.55 14.11-51.23a17.19 17.19 0 0 0 -9.26-20.12 17.12 17.12 0 0 1 .13 9.58l-14.13 51.22a79.6 79.6 0 0 1 -33.32 45.58l-31.85 20.73a25.75 25.75 0 0 1 -28.24-.08l.19.39a25.75 25.75 0 0 0 37.22 10.24l31.86-20.73a79.61 79.61 0 0 0 33.29-45.58z" fill="#7f7b6e"></path><path d="m348.25 176.43h20.42a0 0 0 0 1 0 0v83.06a10.21 10.21 0 0 1 -10.21 10.21 10.21 10.21 0 0 1 -10.21-10.21v-83.06a0 0 0 0 1 0 0z" fill="#535045" transform="matrix(.964 .266 -.266 .964 72.1 -87.18)"></path><path d="m351.36 268.06a10.22 10.22 0 0 1 -2.57-9.88l22.06-80.08-9.85-2.71-22.06 80.07a10.21 10.21 0 0 0 12.42 12.6z" fill="#48453c"></path><path d="m379.16 358.5c-.32 0-.62 0-.94 0a23.93 23.93 0 0 0 -39.67-12.12 14.19 14.19 0 0 0 -17.12 1.45 23.94 23.94 0 0 0 -41.71 15.88 14.1 14.1 0 0 0 -6.41-1.54 14.29 14.29 0 1 0 13.56 18.83 23.94 23.94 0 0 0 30.43 2.6 14.26 14.26 0 0 0 24.55.4 23.95 23.95 0 0 0 27.41-.91 14.28 14.28 0 1 0 9.9-24.56z" fill="#4e2d1e"></path><ellipse cx="375.36" cy="284.04" fill="#a39e8f" rx="16" ry="10.5" transform="matrix(.277 -.961 .961 .277 -1.43 566.18)"></ellipse><ellipse cx="365.88" cy="315.47" fill="#a39e8f" rx="11.41" ry="7.48" transform="matrix(.277 -.961 .961 .277 -38.49 579.81)"></ellipse><path d="m393.45 372.22a14.3 14.3 0 0 1 -1.17 5.67 14.3 14.3 0 0 0 -13.12-8.61c-.31 0-.62 0-.93.05a23.93 23.93 0 0 0 -39.67-12.13 14.22 14.22 0 0 0 -17.12 1.46 23.93 23.93 0 0 0 -41.71 15.87 14.27 14.27 0 0 0 -19.53 7.08 14.3 14.3 0 0 1 13.12-20 14.13 14.13 0 0 1 6.41 1.54 23.94 23.94 0 0 1 41.71-15.88 14.19 14.19 0 0 1 17.12-1.45 23.93 23.93 0 0 1 39.67 12.18c.31 0 .62-.05.93-.05a14.28 14.28 0 0 1 14.29 14.27z" fill="#41261b"></path></g></svg>