<!-- icon666.com - MILLIONS vector ICONS FREE --><svg viewBox="-58 1 453 453.94" xmlns="http://www.w3.org/2000/svg"><path d="m164.878906 387.152344c-4.441406-11.34375-14.703125-27.476563-38.382812-39.925782-31.515625-16.574218-66.808594-16.292968-85.011719-14.644531l-15.441406 1.402344 7.609375 13.480469c9 16.003906 28.84375 45.277344 60.246094 61.789062 15.472656 8.132813 29.003906 10.660156 39.816406 10.660156 4.988281.015626 9.960937-.546874 14.824218-1.667968l26.132813-6.101563zm0 0" fill="#72a55f"></path><path d="m197.292969 168.363281c0 15.691407-12.71875 28.414063-28.414063 28.414063-15.691406 0-28.414062-12.722656-28.414062-28.414063 0-15.695312 12.722656-28.414062 28.414062-28.414062 15.695313 0 28.414063 12.71875 28.414063 28.414062zm0 0" fill="#d37300"></path><g fill="#fff2e9"><path d="m140.296875 151.289062c1.527344.023438 3.050781-.195312 4.511719-.648437l4.757812-1.582031 1.582032-4.757813c3.878906-11.664062-9.671876-36.9375-31.515626-58.78125-21.84375-21.839843-47.085937-35.382812-58.765624-31.523437l-4.761719 1.570312-1.589844 4.773438c-3.871094 11.660156 9.671875 36.933594 31.523437 58.777344 19.332032 19.339843 41.367188 32.171874 54.257813 32.171874zm0 0"></path><path d="m151.148438 192.425781-1.570313-4.742187-4.703125-1.589844c-11.660156-3.910156-36.933594 9.640625-58.796875 31.515625-21.863281 21.871094-35.394531 47.117187-31.523437 58.777344l1.582031 4.75 4.75 1.589843c1.464843.457032 2.996093.683594 4.53125.660157 12.890625 0 34.914062-12.839844 54.253906-32.183594 21.804687-21.84375 35.355469-47.105469 31.476563-58.777344zm0 0"></path><path d="m139.324219 172.84375 2.253906-4.480469-2.253906-4.480469c-5.5-11.003906-32.953125-19.285156-63.847657-19.285156-30.894531 0-58.347656 8.292969-63.847656 19.285156l-2.25 4.480469 2.25 4.480469c5.5 11 33.003906 19.273438 63.847656 19.273438s58.398438-8.28125 63.847657-19.273438zm0 0"></path><path d="m164.398438 138.808594 4.480468 2.238281 4.480469-2.238281c11.003906-5.511719 19.273437-32.953125 19.273437-63.847656 0-30.894532-8.28125-58.347657-19.273437-63.847657l-4.480469-2.253906-4.480468 2.253906c-11 5.5-19.273438 33.003907-19.273438 63.847657s8.28125 58.335937 19.273438 63.847656zm0 0"></path><path d="m186.613281 144.300781 1.570313 4.738281 4.738281 1.589844c1.472656.464844 3.007813.6875 4.550781.660156 12.894532 0 34.90625-12.832031 54.25-32.171874 21.851563-21.84375 35.394532-47.117188 31.523438-58.777344l-1.582032-4.761719-4.769531-1.582031c-11.671875-3.859375-36.933593 9.691406-58.769531 31.523437-21.832031 21.835938-35.394531 47.109375-31.511719 58.78125zm0 0"></path><path d="m326.128906 163.882812c-5.5-11.003906-33.003906-19.285156-63.847656-19.285156s-58.347656 8.292969-63.847656 19.285156l-2.25 4.480469 2.25 4.480469c5.5 11 32.953125 19.273438 63.847656 19.273438s58.347656-8.28125 63.847656-19.273438l2.253906-4.480469zm0 0"></path><path d="m173.359375 197.964844-4.480469-2.300782-4.480468 2.300782c-11 5.503906-19.273438 32.957031-19.273438 63.851562 0 30.890625 8.28125 58.347656 19.273438 63.847656l4.480468 2.25 4.480469-2.25c11.003906-5.5 19.273437-32.957031 19.273437-63.847656 0-30.894531-8.28125-58.398437-19.273437-63.851562zm0 0"></path><path d="m192.941406 186.09375-4.75 1.582031-1.578125 4.75c-3.882812 11.660157 9.671875 36.933594 31.511719 58.777344 19.34375 19.34375 41.367188 32.183594 54.257812 32.183594 1.53125.023437 3.058594-.203125 4.519532-.660157l4.761718-1.578124 1.582032-4.761719c3.871094-11.660157-9.671875-36.933594-31.523438-58.777344-21.855468-21.84375-47.117187-35.394531-58.78125-31.515625zm0 0"></path></g><path d="m262.28125 134.597656c-4.320312 0-8.679688.160156-13 .460938 3.28125-2.839844 6.46875-5.8125 9.519531-8.871094 13.09375-13.082031 23.585938-27.382812 29.566407-40.234375 9.488281-20.433594 5-31.195313-.410157-36.625-5.410156-5.433594-16.203125-9.914063-36.625-.410156-12.894531 6-27.195312 16.480469-40.277343 29.5625-3.058594 3.058593-6 6.25-8.871094 9.53125.300781-4.332031.449218-8.691407.449218-13 0-36.117188-10.558593-75.011719-33.753906-75.011719-23.191406 0-33.753906 38.875-33.753906 75.011719 0 4.320312.152344 8.679687.449219 13-2.839844-3.28125-5.808594-6.472657-8.871094-9.53125-13.082031-13.082031-27.382813-23.582031-40.273437-29.5625-20.433594-9.492188-31.195313-5.003907-36.625.410156-5.429688 5.410156-9.941407 16.152344-.410157 36.625 6 12.890625 16.480469 27.191406 29.5625 40.273437 3.0625 3.058594 6.25 6 9.53125 8.871094-4.328125-.300781-8.691406-.460937-13-.460937-36.117187 0-75.011719 10.574219-75.011719 33.765625s38.875 33.753906 75.011719 33.753906c4.320313 0 8.679688-.148438 13-.449219-3.28125 2.839844-6.46875 5.808594-9.519531 8.871094-13.101562 13.042969-23.59375 27.394531-29.574219 40.226563-9.492187 20.429687-5 31.191406.410157 36.625 3.140624 3.140624 8 5.949218 15.5625 5.949218 5.511718 0 12.421874-1.511718 21.0625-5.53125 12.890624-6 27.191406-16.492187 40.273437-29.574218 3.0625-3.050782 6.003906-6.238282 8.871094-9.519532-.296875 4.328125-.449219 8.691406-.449219 13 0 30.445313 7.5 62.847656 23.753906 72.269532v25.144531c-7.976562-8.480469-17.355468-15.515625-27.722656-20.804688-48.527344-25.523437-103.796875-14.101562-106.125-13.601562-5.402344 1.144531-8.855469 6.453125-7.710938 11.859375.125.597656.308594 1.179687.539063 1.742187.910156 2.203125 22.832031 54.207031 71.359375 79.730469 16.894531 8.902344 31.824219 11.902344 44.328125 11.902344 8.636719.019531 17.214844-1.488282 25.332031-4.449219v18.453125c0 5.523438 4.476563 10 10 10 5.523438 0 10.003906-4.476562 10.003906-10v-109.964844c16.25-9.421875 23.75-41.828125 23.75-72.269531 0-4.320313-.148437-8.683594-.449218-13.003906 2.839844 3.28125 5.8125 6.472656 8.871094 9.523437 13.082031 13.082032 27.382812 23.59375 40.277343 29.574219 8.640625 4 15.550781 5.53125 21.0625 5.53125 7.519531 0 12.421875-2.8125 15.5625-5.953125 5.417969-5.429688 9.898438-16.191406.410157-36.625-6.003907-12.882812-16.484376-27.183594-29.566407-40.265625-3.058593-3.058594-6.25-6-9.53125-8.871094 4.332031.300781 8.691407.449219 13.003907.449219 36.113281 0 75.007812-10.558594 75.007812-33.753906 0-23.191406-38.882812-33.773438-75-33.773438zm-167.710938 246.710938 51.6875 27.183594c-11.003906 2.582031-27.324218 2.613281-47.707031-8.097657-28.925781-15.214843-47.417969-42.316406-56.1875-57.847656 17.730469-1.601563 50.445313-1.730469 79.492188 13.53125 20.390625 10.71875 29.59375 24.171875 33.722656 34.714844l-51.707031-27.183594c-4.910156-2.527344-10.941406-.59375-13.46875 4.316406-2.492188 4.851563-.644532 10.804688 4.15625 13.382813zm130.628907-288.714844c24.082031-24.09375 44.273437-30.515625 48.554687-29.105469 1.421875 4.28125-5 24.472657-29.105468 48.554688-24.082032 24.085937-44.265626 30.535156-48.542969 29.09375-1.433594-4.277344 5.007812-24.460938 29.09375-48.542969zm-56.320313-72.542969c4 2.003907 13.753906 20.84375 13.753906 54.910157 0 34.0625-9.753906 52.886718-13.753906 54.90625-4-2-13.75-20.84375-13.75-54.90625 0-34.066407 9.75-52.886719 13.75-54.910157zm-93.402344 162.023438c-34.0625 0-52.886718-9.722657-54.90625-13.753907 2-4 20.84375-13.761718 54.90625-13.761718 34.066407 0 52.886719 9.722656 54.910157 13.761718-2.023438 4.074219-20.84375 13.792969-54.910157 13.792969zm37.085938 62.007812c-24.082031 24.09375-44.277344 30.523438-48.554688 29.105469-1.421874-4.292969 5-24.476562 29.101563-48.558594 24.105469-24.082031 44.265625-30.535156 48.546875-29.09375 1.429688 4.332032-5.011719 24.515625-29.09375 48.597656zm29.09375-103.011719c-4.28125 1.417969-24.464844-5.003906-48.546875-29.09375-24.082031-24.085937-30.523437-44.277343-29.101563-48.558593 4.277344-1.410157 24.472657 5 48.554688 29.105469 24.082031 24.101562 30.523438 44.335937 29.09375 48.613281zm27.222656 175.53125c-4-2-13.75-20.84375-13.75-54.90625 0-34.066406 9.75-52.816406 13.75-54.839843 4 2.003906 13.753906 20.84375 13.753906 54.910156 0 34.0625-9.753906 52.886719-13.753906 54.90625zm0-129.898437c-10.167968 0-18.410156-8.242187-18.410156-18.410156 0-10.171875 8.242188-18.414063 18.410156-18.414063 10.171875 0 18.414063 8.242188 18.414063 18.414063.027343 10.179687-8.203125 18.453125-18.382813 18.480469-.011718 0-.019531 0-.03125 0zm104.875 86.464844c-4.28125 1.417969-24.472656-5.003907-48.554687-29.105469-24.085938-24.101562-30.527344-44.265625-29.09375-48.558594 4.277343-1.417968 24.460937 5.003906 48.542969 29.105469 24.085937 24.101563 30.527343 44.367187 29.105468 48.625zm-11.472656-91.125c-34.0625 0-52.886719-9.71875-54.90625-13.75 2-4 20.84375-13.761719 54.90625-13.761719 34.066406 0 52.886719 9.71875 54.910156 13.761719-2.023437 4.101562-20.84375 13.820312-54.910156 13.820312zm0 0"></path></svg>