<!-- icon666.com - MILLIONS vector ICONS FREE --><svg viewBox="0 0 512 512" xmlns="http://www.w3.org/2000/svg"><path d="m337.042969 382.707031-101.058594-20.015625 20.015625 149.300782h139.058594zm0 0" fill="#9e5015"></path><path d="m174.957031 382.707031-58.015625 129.285157h139.058594v-149.300782zm0 0" fill="#ab7b26"></path><path d="m256 0-20.015625 159.464844 20.015625 223.25h81.042969c47.046875 0 89.757812-18.570313 121.199219-48.78125 4.917968-4.726563-.449219-9.734375 3.890624-15 3.945313-4.792969 17.652344-9.796875 21.082032-15 6.9375-10.523438 12.769531-21.839844 17.332031-33.785156 1.765625-4.625 3.328125-61.84375 4.703125-66.648438 1.484375-5.191406 6.75-90.929688 6.75-90.929688v-33.785156l-10.007812-15 10.007812-15v-48.785156zm0 0" fill="#e7c994"></path><path d="m0 0v48.785156l10.007812 15-10.007812 15v33.785156l10.007812 14.84375-10.007812 15.15625v33.785157l10.007812 15-10.007812 15v1.398437c0 11.066406 1.027344 21.894532 2.992188 32.390625 1.003906 5.375 12.265624 10.664063 13.75 15.855469 1.375 4.804688-7.054688 9.519531-5.289063 14.144531 4.558594 11.949219 10.394531 23.265625 17.332031 33.792969 3.425782 5.195312 17.128906 10.199219 21.078125 14.988281 4.339844 5.269531-1.027343 10.277344 3.890625 15.003907 31.445313 30.210937 74.15625 48.785156 121.207032 48.785156h81.039062v-176.359375l-10.007812-46.890625 10.007812-46.894532v-112.570312zm0 0" fill="#f3e5cb"></path><path d="m64.632812 112.570312h-64.632812v30h34.632812v33.785157h-34.632812v30h64.632812zm0 0" fill="#ab7b26"></path><path d="m512 48.785156h-256l-10.007812 15 10.007812 15h256zm0 0" fill="#9e5015"></path><path d="m458.238281 333.929688c9.390625-9.023438 17.773438-19.085938 24.96875-30h-227.207031l-10.007812 15 10.007812 15zm0 0" fill="#9e5015"></path><path d="m53.761719 333.929688h202.238281v-30h-227.203125c7.195313 10.914062 15.574219 20.976562 24.964844 30zm0 0" fill="#ab7b26"></path><path d="m0 48.785156h256v30h-256zm0 0" fill="#ab7b26"></path><path d="m512 112.570312h-30.871094v127.570313h-97.570312v-33.785156h63.785156v-93.785157h-157.570312v127.570313h-33.773438l-10.007812 15.859375 10.007812 14.140625h63.773438v-127.570313h97.570312v33.785157h-63.785156v93.789062h146.976562c7.398438-19.382812 11.464844-40.410156 11.464844-62.386719zm0 0" fill="#9e5015"></path><path d="m98.417969 112.570312v127.570313h-95.414063c1.9375 10.351563 4.785156 20.378906 8.460938 30h116.949218v-127.570313h97.574219v33.785157h-63.785156v93.789062h93.796875v-30h-63.796875v-33.789062h63.785156v-93.785157zm0 0" fill="#ab7b26"></path></svg>